<svg xmlns="http://www.w3.org/2000/svg" version="1.1" xmlns:xlink="http://www.w3.org/1999/xlink" xmlns:svgjs="http://svgjs.com/svgjs" width="512" height="512" x="0" y="0" viewBox="0 0 510 510" style="enable-background:new 0 0 512 512" xml:space="preserve" class=""><g><linearGradient id="a"><stop offset="0" stop-color="#ffdfcf"></stop><stop offset="1" stop-color="#ffa78f"></stop></linearGradient><linearGradient xlink:href="#a" id="f" x1="204.854" x2="268.855" y1="375.196" y2="505.196" gradientUnits="userSpaceOnUse"></linearGradient><linearGradient id="b"><stop offset="0" stop-color="#f89580" stop-opacity="0"></stop><stop offset=".997" stop-color="#c5715a"></stop></linearGradient><linearGradient xlink:href="#b" id="g" x1="406.002" x2="364.647" y1="430.481" y2="430.481" gradientUnits="userSpaceOnUse"></linearGradient><linearGradient xlink:href="#b" id="h" x1="255" x2="255" y1="471.333" y2="528.035" gradientUnits="userSpaceOnUse"></linearGradient><linearGradient id="c"><stop offset="0" stop-color="#5a5a5a"></stop><stop offset="1" stop-color="#444"></stop></linearGradient><linearGradient xlink:href="#c" id="i" x1="220.261" x2="276.955" y1="361.099" y2="476.26" gradientUnits="userSpaceOnUse"></linearGradient><linearGradient id="d"><stop offset="0" stop-color="#444" stop-opacity="0"></stop><stop offset=".313" stop-color="#363636" stop-opacity=".313"></stop><stop offset="1" stop-color="#1a1a1a"></stop></linearGradient><linearGradient xlink:href="#d" id="j" x1="354.438" x2="195.438" y1="426.062" y2="226.562" gradientUnits="userSpaceOnUse"></linearGradient><linearGradient xlink:href="#a" id="k" x1="255.002" x2="255.002" y1="323.633" y2="390.281" gradientUnits="userSpaceOnUse"></linearGradient><linearGradient xlink:href="#b" id="l" x1="255.002" x2="255.002" y1="386" y2="352.864" gradientUnits="userSpaceOnUse"></linearGradient><linearGradient xlink:href="#a" id="m" x1="118.445" x2="151.519" y1="189.75" y2="222.824" gradientUnits="userSpaceOnUse"></linearGradient><linearGradient xlink:href="#a" id="n" x1="349.716" x2="395.997" y1="183.468" y2="229.749" gradientUnits="userSpaceOnUse"></linearGradient><linearGradient id="o" x1="130.556" x2="130.556" y1="244.853" y2="263.545" gradientUnits="userSpaceOnUse"><stop offset="0" stop-color="#f5f173"></stop><stop offset="1" stop-color="#fbb03b"></stop></linearGradient><linearGradient id="p" x1="130.556" x2="130.556" y1="255.213" y2="278.09" gradientUnits="userSpaceOnUse"><stop offset="0" stop-color="#db841d" stop-opacity="0"></stop><stop offset="1" stop-color="#f7931e"></stop></linearGradient><linearGradient xlink:href="#a" id="q" x1="136.055" x2="373.945" y1="209.562" y2="209.562" gradientUnits="userSpaceOnUse"></linearGradient><linearGradient id="e"><stop offset="0" stop-color="#f6a96c"></stop><stop offset="1" stop-color="#883f2e"></stop></linearGradient><linearGradient xlink:href="#e" id="r" x1="239.516" x2="268.849" y1="274.892" y2="330.226" gradientUnits="userSpaceOnUse"></linearGradient><linearGradient xlink:href="#b" id="s" x1="255" x2="255" y1="231.333" y2="278" gradientUnits="userSpaceOnUse"></linearGradient><linearGradient xlink:href="#c" id="t" x1="184.987" x2="219.559" y1="211.404" y2="211.404" gradientUnits="userSpaceOnUse"></linearGradient><linearGradient xlink:href="#c" id="u" x1="290.441" x2="325.013" y1="211.404" y2="211.404" gradientUnits="userSpaceOnUse"></linearGradient><linearGradient xlink:href="#e" id="v" x1="202.613" x2="303.946" y1="40.149" y2="245.482" gradientUnits="userSpaceOnUse"></linearGradient><linearGradient xlink:href="#d" id="w" x1="255.002" x2="255.002" y1="478" y2="519.333" gradientUnits="userSpaceOnUse"></linearGradient><linearGradient id="x" x1="255.002" x2="255.002" y1="128" y2="194.667" gradientUnits="userSpaceOnUse"><stop offset="0" stop-color="#c5715a" stop-opacity="0"></stop><stop offset="1" stop-color="#883f2e"></stop></linearGradient><path fill="url(#f)" d="M445.177 510h-42.871l-147.304-2-147.304 2H64.823c-9.051 0-16.389-7.337-16.389-16.389 0-87.437 70.882-158.318 158.318-158.318h96.495c87.437 0 158.318 70.882 158.318 158.318.001 9.052-7.337 16.389-16.388 16.389z" data-original="url(#f)"></path><path fill="url(#g)" d="M372.002 350.963v158.626l30.304.411h42.87c9.051 0 16.389-7.337 16.389-16.389.001-62.799-36.563-117.056-89.563-142.648z" data-original="url(#g)"></path><path fill="url(#h)" d="M48.434 493.611c0 9.051 7.337 16.389 16.389 16.389h42.875l147.304-2 147.304 2h42.871c9.051 0 16.389-7.338 16.389-16.389 0-12.553-1.468-24.762-4.229-36.471H52.663a158.742 158.742 0 0 0-4.229 36.471z" data-original="url(#h)"></path><path fill="url(#i)" d="M377.335 353.675c-22.107-11.729-47.319-18.382-74.088-18.382h-96.495c-26.768 0-51.978 6.653-74.084 18.38v155.988L255.002 508l122.333 1.661z" data-original="url(#i)" class=""></path><path fill="url(#j)" d="M461.562 493.61c0 4.53-1.83 8.62-4.8 11.59-2.96 2.96-7.06 4.8-11.59 4.8h-42.87l-43.8-.59-172.74-172.74c6.86-.91 13.87-1.38 20.99-1.38h96.5c87.43 0 158.31 70.88 158.31 158.32z" data-original="url(#j)"></path><circle cx="255.002" cy="350.5" r="46.5" fill="url(#k)" data-original="url(#k)"></circle><circle cx="255.002" cy="350.5" r="46.5" fill="url(#l)" data-original="url(#l)" class=""></circle><path fill="url(#m)" d="M106.345 207.528c0-19.446 13.499-35.74 31.637-40.022 4.848-1.145 9.483 2.605 9.483 7.587v64.87c0 4.982-4.635 8.731-9.483 7.587-18.138-4.282-31.637-20.575-31.637-40.022z" data-original="url(#m)"></path><path fill="url(#n)" d="M403.655 207.528c0-19.446-13.499-35.74-31.637-40.022-4.848-1.145-9.483 2.605-9.483 7.587v64.87c0 4.982 4.635 8.731 9.483 7.587 18.138-4.282 31.637-20.575 31.637-40.022z" data-original="url(#n)"></path><circle cx="130.556" cy="251.835" r="15.501" fill="url(#o)" data-original="url(#o)"></circle><path fill="url(#p)" d="M130.556 267.336c8.561 0 15.501-6.94 15.501-15.501h-31.002c0 8.561 6.94 15.501 15.501 15.501z" data-original="url(#p)"></path><path fill="url(#q)" d="M255 359.005c-65.691 0-118.945-53.253-118.945-118.945v-60.998c0-65.691 53.254-118.945 118.945-118.945s118.945 53.253 118.945 118.945v60.998c0 65.692-53.254 118.945-118.945 118.945z" data-original="url(#q)" class=""></path><path fill="url(#r)" d="M302.002 307.05c0 20.6-94 20.6-94 0s21.043-37.3 47-37.3 47 16.7 47 37.3z" data-original="url(#r)" class=""></path><path fill="url(#s)" d="M261.571 269.976h-13.142c-10.952 0-19.244-9.897-17.326-20.68l7.533-42.35h32.727l7.534 42.35c1.918 10.783-6.374 20.68-17.326 20.68z" data-original="url(#s)" class=""></path><path fill="url(#t)" d="M202.273 233.122c-9.547 0-17.286-7.739-17.286-17.286v-8.865c0-9.547 7.739-17.286 17.286-17.286 9.546 0 17.286 7.739 17.286 17.286v8.865c0 9.547-7.74 17.286-17.286 17.286z" data-original="url(#t)"></path><path fill="url(#u)" d="M307.727 233.122c-9.547 0-17.286-7.739-17.286-17.286v-8.865c0-9.547 7.739-17.286 17.286-17.286s17.286 7.739 17.286 17.286v8.865c0 9.547-7.739 17.286-17.286 17.286z" data-original="url(#u)"></path><path fill="url(#v)" d="M391.793 125.681c9.589-11.46 11.754-28.059 4.17-41.974-7.584-13.914-22.709-21.09-37.536-19.241 2.935-14.651-3.108-30.263-16.427-38.85-16.379-10.561-37.898-6.726-49.71 8.288C290.497 14.884 274.491 0 255.002 0s-35.495 14.884-37.287 33.904c-11.813-15.014-33.331-18.849-49.71-8.288-13.318 8.588-19.362 24.199-16.427 38.85-14.828-1.849-29.952 5.327-37.536 19.241-7.584 13.915-5.419 30.514 4.17 41.974-13.904 5.473-23.749 19.012-23.749 34.859 0 20.688 16.771 37.46 37.459 37.46s37.46-16.771 37.46-37.46a37.31 37.31 0 0 0-2.572-13.637 40.658 40.658 0 0 0 5.816 3.873c14.919 8.129 32.716 5.814 45.005-4.476 5.863 14.909 20.38 25.467 37.373 25.467 16.994 0 31.511-10.558 37.374-25.467 12.289 10.29 30.086 12.605 45.005 4.476a40.799 40.799 0 0 0 5.816-3.873 37.319 37.319 0 0 0-2.572 13.637c0 20.688 16.771 37.46 37.46 37.46s37.46-16.771 37.46-37.46c-.004-15.847-9.85-29.386-23.754-34.859z" data-original="url(#v)" class=""></path><path fill="url(#w)" d="M377.335 457.14H132.669v52.521L255.002 508l122.333 1.661z" data-original="url(#w)"></path><path fill="url(#x)" d="M118.211 125.681c-13.904 5.473-23.749 19.012-23.749 34.859 0 20.688 16.771 37.46 37.459 37.46s37.46-16.771 37.46-37.46a37.31 37.31 0 0 0-2.572-13.637 40.658 40.658 0 0 0 5.816 3.873c14.919 8.129 32.716 5.814 45.005-4.476 5.863 14.909 20.38 25.467 37.373 25.467 16.994 0 31.511-10.558 37.374-25.467 12.289 10.29 30.086 12.605 45.005 4.476a40.799 40.799 0 0 0 5.816-3.873 37.319 37.319 0 0 0-2.572 13.637c0 20.688 16.771 37.46 37.46 37.46s37.46-16.771 37.46-37.46c0-15.847-9.846-29.386-23.75-34.859 7.885-9.424 10.745-22.324 7.295-34.348H110.915c-3.449 12.025-.589 24.924 7.296 34.348z" data-original="url(#x)" class=""></path></g></svg>