<svg xmlns="http://www.w3.org/2000/svg" version="1.1" xmlns:xlink="http://www.w3.org/1999/xlink" xmlns:svgjs="http://svgjs.com/svgjs" width="512" height="512" x="0" y="0" viewBox="0 0 512 512" style="enable-background:new 0 0 512 512" xml:space="preserve" class=""><g transform="matrix(-1,0,0,1,511.99736750125885,0)"><linearGradient id="a" x1="142.452" x2="205.452" y1="69.928" y2="133.928" gradientUnits="userSpaceOnUse"><stop offset="0" stop-color="#b3dafe"></stop><stop offset="1" stop-color="#7bacdf"></stop></linearGradient><linearGradient xlink:href="#a" id="f" x1="478.181" x2="420.656" y1="9.755" y2="63.857"></linearGradient><linearGradient id="g" x1="393.932" x2="339.265" y1="13.129" y2="162.462" gradientUnits="userSpaceOnUse"><stop offset="0" stop-color="#aeffd1"></stop><stop offset="1" stop-color="#22b27f"></stop></linearGradient><linearGradient id="h" x1="505.823" x2="434.489" y1="177.257" y2="185.924" gradientUnits="userSpaceOnUse"><stop offset="0" stop-color="#22b27f" stop-opacity="0"></stop><stop offset="1" stop-color="#017b4e"></stop></linearGradient><linearGradient id="b" x1="318.891" x2="324.61" y1="28.5" y2="77.109" gradientUnits="userSpaceOnUse"><stop offset="0" stop-color="#fef0ae"></stop><stop offset="1" stop-color="#fed402"></stop></linearGradient><linearGradient xlink:href="#b" id="i" x1="88.656" x2="58.656" y1="88.418" y2="118.418"></linearGradient><linearGradient id="c" x1="68.408" x2="55.741" y1="93.259" y2="155.592" gradientUnits="userSpaceOnUse"><stop offset="0" stop-color="#fef0ae" stop-opacity="0"></stop><stop offset="1" stop-color="#fe9738"></stop></linearGradient><linearGradient xlink:href="#c" id="j" x1="44.687" x2="27.687" y1="62.727" y2="131.727"></linearGradient><linearGradient xlink:href="#c" id="k" x1="20.702" x2="11.202" y1="36.071" y2="55.571"></linearGradient><linearGradient xlink:href="#c" id="l" x1="112.097" x2="130.597" y1="112.334" y2="155.334"></linearGradient><linearGradient id="m" x1="100.464" x2="297.599" y1="145.507" y2="459.829" gradientUnits="userSpaceOnUse"><stop offset="0" stop-color="#f9f5f3"></stop><stop offset="1" stop-color="#e5caf3"></stop></linearGradient><linearGradient id="d" x1="337.643" x2="337.643" y1="409.93" y2="515.996" gradientUnits="userSpaceOnUse"><stop offset="0" stop-color="#5b3374" stop-opacity="0"></stop><stop offset=".173" stop-color="#5b3374" stop-opacity=".039"></stop><stop offset=".363" stop-color="#5b3374" stop-opacity=".152"></stop><stop offset=".56" stop-color="#5b3374" stop-opacity=".341"></stop><stop offset=".763" stop-color="#5b3374" stop-opacity=".605"></stop><stop offset=".968" stop-color="#5b3374" stop-opacity=".942"></stop><stop offset="1" stop-color="#5b3374"></stop></linearGradient><linearGradient xlink:href="#d" id="n" x1="386.859" x2="386.859" y1="479.25" y2="426.462"></linearGradient><linearGradient xlink:href="#d" id="o" x1="160.68" x2="208.68" y1="311.721" y2="429.721"></linearGradient><linearGradient id="p" x1="35.553" x2="116.855" y1="328.447" y2="409.749" gradientUnits="userSpaceOnUse"><stop offset="0" stop-color="#ffdfcf"></stop><stop offset="1" stop-color="#ffa78f"></stop></linearGradient><linearGradient xlink:href="#d" id="q" x1="4.133" x2="61.769" y1="313.905" y2="371.54" gradientTransform="rotate(24.03 30.148 340.073)"></linearGradient><linearGradient id="r" x1="121.819" x2="157.14" y1="211.824" y2="237.824" gradientUnits="userSpaceOnUse"><stop offset="0" stop-color="#5a5a5a"></stop><stop offset="1" stop-color="#444"></stop></linearGradient><linearGradient id="e" x1="165.95" x2="228.45" y1="93.909" y2="145.909" gradientUnits="userSpaceOnUse"><stop offset="0" stop-color="#feaee1"></stop><stop offset="1" stop-color="#fe5694"></stop></linearGradient><linearGradient xlink:href="#d" id="s" x1="289.551" x2="253.551" y1="149.766" y2="65.1"></linearGradient><linearGradient xlink:href="#d" id="t" x1="336.614" x2="397.281" y1="320.257" y2="217.59"></linearGradient><linearGradient xlink:href="#e" id="u" x1="506.528" x2="351.528" y1="205.766" y2="253.766"></linearGradient><linearGradient id="v" x1="419.302" x2="297.302" y1="278.419" y2="231.085" gradientUnits="userSpaceOnUse"><stop offset="0" stop-color="#fe0364" stop-opacity="0"></stop><stop offset="1" stop-color="#e30256"></stop></linearGradient><linearGradient id="w" x1="416.356" x2="305.856" y1="127.304" y2="185.304" gradientUnits="userSpaceOnUse"><stop offset="0" stop-color="#e5caf3"></stop><stop offset="1" stop-color="#bd80e1"></stop></linearGradient><linearGradient xlink:href="#d" id="x" x1="384.585" x2="284.585" y1="206.064" y2="182.564"></linearGradient><linearGradient xlink:href="#a" id="y" x1="314.164" x2="258.433" y1="95.598" y2="148.011"></linearGradient><linearGradient id="z" x1="275.504" x2="235.004" y1="112.76" y2="127.76" gradientUnits="userSpaceOnUse"><stop offset="0" stop-color="#7bacdf" stop-opacity="0"></stop><stop offset="1" stop-color="#0681af"></stop></linearGradient><g data-name="3 Unicorn"><ellipse cx="198.017" cy="126.376" fill="url(#a)" rx="100.489" ry="89.549" data-original="url(#a)"></ellipse><path fill="url(#f)" d="M498.914 22.534c-7.66 10.453-19.47 20.177-37.056 20.823-13.265.487-22.716-4.572-29.417-11.444h-72.678c4.415 44.03 40.031 82.883 91.312 76.423a66.24 66.24 0 0 0 10.646-2.222c36.116-10.806 46.542-50.374 49.245-78.944a6.7 6.7 0 0 0-12.052-4.636z" data-original="url(#f)"></path><circle cx="334.55" cy="175.342" r="174.342" fill="url(#g)" data-original="url(#g)"></circle><path fill="url(#h)" d="M402.33 336.017a174.563 174.563 0 0 0 104.436-187.935L402.33 43.646z" data-original="url(#h)" class=""></path><circle cx="328.823" cy="112.919" r="101.011" fill="url(#b)" data-original="url(#b)"></circle><path fill="url(#i)" d="M2.509 34.053 122.57 204.224l61.042-61.042L13.441 23.12c-7.197-5.078-16.01 3.735-10.932 10.933z" data-original="url(#i)"></path><path fill="url(#c)" d="M127.333 103.475 13.441 23.12c-7.2-5.078-16.01 3.735-10.932 10.933L122.57 204.224l4.763-4.763z" data-original="url(#c)"></path><path fill="url(#j)" d="M77.611 68.394 13.441 23.12c-7.2-5.078-16.01 3.735-10.932 10.933L77.611 140.5z" data-original="url(#j)"></path><path fill="url(#k)" d="M27.888 33.313 13.441 23.12c-7.2-5.078-16.01 3.735-10.932 10.933l25.379 35.971z" data-original="url(#k)"></path><path fill="url(#l)" d="M77.611 68.394 47.782 98.222l74.788 106.002 61.042-61.042z" data-original="url(#l)"></path><path fill="url(#m)" d="M410.911 239.69 391.12 210c-34.459-51.7-91.061-84.614-152.808-87.963A59.324 59.324 0 0 0 179 63.554a12 12 0 0 0-12 12v6.266l4 19.85-4 22.648a120.5 120.5 0 0 0-95.584 113.654 87.414 87.414 0 0 1-12.545 42.361 49.771 49.771 0 0 1-42.537 23.93A15.333 15.333 0 0 0 1 319.6v59.741a29.593 29.593 0 0 0 8.669 20.928l6.179 6.179A68.8 68.8 0 0 0 64.5 426.6a68.806 68.806 0 0 0 48.653-20.153 155.392 155.392 0 0 1 92.368-44.486 120 120 0 0 0 51.493-18.347 46.175 46.175 0 0 1 0 65.3 60.369 60.369 0 0 0-17.681 42.686v16.321a43.128 43.128 0 0 0 49.37 42.626q2.06-.3 4.084-.618c85.035-13.467 147.546-86.951 147.546-173.046a175.246 175.246 0 0 0-29.422-97.193z" data-original="url(#m)"></path><path fill="url(#d)" d="M270.532 375.93a46.028 46.028 0 0 1-13.518 32.985 60.369 60.369 0 0 0-17.681 42.685v16.321a43.128 43.128 0 0 0 49.37 42.626q2.06-.3 4.084-.618a175.058 175.058 0 0 0 143.165-134z" data-original="url(#d)"></path><path fill="url(#n)" d="M413.822 429.624h-46.2l-7.728 7.727 26.281 26.282a175.916 175.916 0 0 0 27.647-34.009z" data-original="url(#n)"></path><path fill="url(#o)" d="M312.333 242.24a120.443 120.443 0 0 1-106.81 119.72 155.287 155.287 0 0 0-68.84 25.19 154 154 0 0 0-23.53 19.29 68.793 68.793 0 0 1-97.31 0l-6.17-6.17A29.561 29.561 0 0 1 1 379.34V319.6a15.33 15.33 0 0 1 15.33-15.34 49.754 49.754 0 0 0 24.4-6.39c1-.56 1.98-1.16 2.93-1.78a49.821 49.821 0 0 0 15.21-15.76 87.381 87.381 0 0 0 12.54-42.36 120.474 120.474 0 0 1 114.65-116.09c.88-.05 1.76-.08 2.63-.1 1.04-.03 2.07-.04 3.1-.04h.05a120.5 120.5 0 0 1 120.493 120.5z" data-original="url(#o)"></path><path fill="url(#p)" d="M63.786 270.962a85.7 85.7 0 0 1-4.913 9.368 49.821 49.821 0 0 1-15.21 15.76c-.95.62-1.93 1.22-2.93 1.78a49.754 49.754 0 0 1-24.4 6.39A15.33 15.33 0 0 0 1 319.6v59.74a29.561 29.561 0 0 0 8.67 20.93l6.17 6.17a68.792 68.792 0 0 0 97.31 0 154.182 154.182 0 0 1 19.615-16.583 114.938 114.938 0 0 0 .85-13.927 113.8 113.8 0 0 0-69.829-104.968z" data-original="url(#p)"></path><ellipse cx="30.14" cy="339.911" fill="url(#q)" rx="17.118" ry="21.446" transform="rotate(-24.03 30.16 340.071)" data-original="url(#q)"></ellipse><path fill="url(#r)" d="M138.411 256a25.439 25.439 0 0 1-25.439-25.44v-13.046a25.439 25.439 0 0 1 25.439-25.439 25.44 25.44 0 0 1 25.44 25.439v13.046a25.44 25.44 0 0 1-25.44 25.44z" data-original="url(#r)"></path><path fill="url(#e)" d="M196.693 101.53v20.32c-1.61-.08-3.22-.11-4.85-.11h-.05c-1.03 0-2.06.01-3.1.04-.87.02-1.75.05-2.63.1A121.356 121.356 0 0 0 167 124.32v-42.5a4.985 4.985 0 0 1 4.99-4.99 24.719 24.719 0 0 1 24.7 24.7z" data-original="url(#e)"></path><path fill="url(#s)" d="M387.142 204.273c-34.742-48.391-89.4-79.014-148.83-82.237v82.237z" data-original="url(#s)"></path><path fill="url(#t)" d="M391.12 210a199.407 199.407 0 0 0-62.72-60.053l-63.49 63.49 169.127 170.109a175.423 175.423 0 0 0 6.3-46.662 175.246 175.246 0 0 0-29.422-97.194z" data-original="url(#t)"></path><path fill="url(#u)" d="M468.553 225.922c-11.509-13.916-15.839-32.334-12.627-50.1A98.582 98.582 0 0 0 359.01 59.69a98.023 98.023 0 0 0-27.46 3.89c33.04 21.19 55.36 58.14 55.59 99.82a119.379 119.379 0 0 1-11.04 50.86c-1.18 2.54-2.97 6.29-4.94 10.35a72.985 72.985 0 0 0-6.53 21.35 97.308 97.308 0 0 1 15.43 8.45 98.5 98.5 0 0 1-18.536 173.478 5.585 5.585 0 0 0 1.816 10.778q3.419.129 6.881.081a130.022 130.022 0 0 0 98.332-212.825z" data-original="url(#u)"></path><path fill="url(#v)" d="M455.926 175.818a98.674 98.674 0 0 0 1.246-9.773L366.9 75.77h-19.427c24.087 21.768 39.476 53.068 39.667 87.63a119.379 119.379 0 0 1-11.04 50.86c-1.18 2.54-2.97 6.29-4.94 10.35a72.985 72.985 0 0 0-6.53 21.35 97.308 97.308 0 0 1 15.43 8.45 98.5 98.5 0 0 1-18.536 173.478 5.585 5.585 0 0 0 1.816 10.778q3.419.129 6.881.081a130.022 130.022 0 0 0 98.332-212.825c-11.509-13.916-15.839-32.334-12.627-50.104z" data-original="url(#v)" class=""></path><path fill="url(#w)" d="M399.512 302.151c-21.358-21.438-26.342-54.294-13.164-81.536 1.967-4.066 3.761-7.811 4.942-10.355a118.769 118.769 0 0 0 11.038-50.86c-.362-65.953-56.037-120.069-121.976-118.65a118.833 118.833 0 0 0-75.232 28.86 59.1 59.1 0 0 1 17.25 12.81 91.079 91.079 0 0 1 101.68 103.731 83.312 83.312 0 0 0 73.465 122.6h.089a3.542 3.542 0 0 0 2.425-6.082c-.173-.169-.346-.346-.517-.518z" data-original="url(#w)"></path><path fill="url(#x)" d="M314.206 225.439a83.309 83.309 0 0 0 83.309 83.309h.089a3.542 3.542 0 0 0 2.425-6.082c-.174-.171-.346-.343-.518-.515-21.357-21.438-26.341-54.294-13.163-81.536 1.967-4.066 3.761-7.811 4.942-10.355a118.579 118.579 0 0 0 10.95-45.817l-73.417-73.417-15.723 36.607a90.275 90.275 0 0 1 11.94 45.067 91.78 91.78 0 0 1-.99 13.451 82.88 82.88 0 0 0-9.844 39.288z" data-original="url(#x)" class=""></path><path fill="url(#y)" d="M349.19 152.237a66.355 66.355 0 0 1-1.83 10.72c-9.473 36.488-48.633 48.359-77.084 52.109a6.7 6.7 0 0 1-5.075-11.874c10.164-8.039 19.449-20.2 19.449-37.8 0-37.67-43.49-43.04-46.21-43.34a.57.57 0 0 0-.13-.01 59.254 59.254 0 0 0-21.91-45.21c57.267-35.159 139.22 3.015 132.79 75.405z" data-original="url(#y)"></path><path fill="url(#z)" d="M309.5 114.894a70.954 70.954 0 0 0-17.638-46.9A91.266 91.266 0 0 0 216.4 76.83a59.254 59.254 0 0 1 21.91 45.21.57.57 0 0 1 .13.01c2.72.3 46.21 5.67 46.21 43.34 0 1.257-.06 2.478-.151 3.68a71.074 71.074 0 0 0 25.001-54.176z" data-original="url(#z)"></path></g></g></svg>