<svg xmlns="http://www.w3.org/2000/svg" version="1.1" xmlns:xlink="http://www.w3.org/1999/xlink" xmlns:svgjs="http://svgjs.com/svgjs" width="512" height="512" x="0" y="0" viewBox="0 0 512 512" style="enable-background:new 0 0 512 512" xml:space="preserve" class=""><g><path fill="#2c2f38" d="M512 256c0 141.387-114.613 256-256 256S0 397.387 0 256 114.613 0 256 0s256 114.613 256 256zm0 0" data-original="#2c2f38" class=""></path><g fill="#7f8c8d"><path d="M35.309 264.828c-4.875 0-8.825-3.953-8.825-8.828.133-76.285 38.063-147.547 101.27-190.262a8.83 8.83 0 0 1 8.805-.625 8.83 8.83 0 0 1 4.941 7.317 8.817 8.817 0 0 1-3.86 7.937 212.95 212.95 0 0 0-76.8 93.254 211.023 211.023 0 0 0-12.36 39.723A213.767 213.767 0 0 0 44.137 256a8.826 8.826 0 0 1-8.828 8.828zM256 485.516c-92.215-.168-175.426-55.364-211.445-140.25a8.828 8.828 0 0 1 4.687-11.575c4.488-1.902 9.668.2 11.57 4.688C93.876 416.899 170.805 467.934 256 467.863a8.826 8.826 0 0 1 8.828 8.828c0 4.875-3.953 8.825-8.828 8.825zM411.977 420.8a8.826 8.826 0 0 1-6.243-15.066 212.626 212.626 0 0 0 45.454-67.355 211.023 211.023 0 0 0 12.359-39.723A213.74 213.74 0 0 0 467.863 256a8.826 8.826 0 0 1 8.828-8.828c4.875 0 8.825 3.953 8.825 8.828a229.204 229.204 0 0 1-67.301 162.215 8.741 8.741 0 0 1-6.238 2.586zM459.324 179.016a8.83 8.83 0 0 1-8.136-5.395c-27.172-64.266-84.204-111.066-152.532-125.176a8.826 8.826 0 0 1-6.676-10.37c.958-4.696 5.489-7.766 10.208-6.923 73.984 15.364 135.73 66.024 165.25 135.582a8.83 8.83 0 0 1-.762 8.325 8.837 8.837 0 0 1-7.36 3.957zm0 0" fill="#7f8c8d" data-original="#7f8c8d" class=""></path></g><path fill="#d1d4d1" d="M409.672 368.402a8.829 8.829 0 0 1-7.309-13.773A175.526 175.526 0 0 0 432.551 256a8.829 8.829 0 0 1 17.656 0 193.096 193.096 0 0 1-33.219 108.516 8.819 8.819 0 0 1-7.316 3.886zM426.797 192.742a8.83 8.83 0 0 1-8.14-5.387 177.497 177.497 0 0 0-94.012-94.011c-4.493-1.906-6.59-7.09-4.684-11.578 1.902-4.493 7.086-6.586 11.578-4.684a195.27 195.27 0 0 1 103.379 103.379 8.827 8.827 0 0 1-8.121 12.281zM70.621 264.828A8.829 8.829 0 0 1 61.793 256a193.997 193.997 0 0 1 56.945-137.262c3.465-3.343 8.973-3.297 12.375.11a8.828 8.828 0 0 1 .11 12.375 177.159 177.159 0 0 0-37.88 56.132 174.138 174.138 0 0 0-10.3 33.106A176.884 176.884 0 0 0 79.449 256a8.829 8.829 0 0 1-8.828 8.828zM218.695 446.438a8.94 8.94 0 0 1-1.765-.184 192.516 192.516 0 0 1-36.45-11.336A195.267 195.267 0 0 1 77.082 331.539c-1.902-4.492.191-9.676 4.684-11.578 4.488-1.906 9.671.191 11.578 4.684 22.64 53.558 70.168 92.562 127.117 104.312a8.834 8.834 0 0 1 7.027 9.54 8.831 8.831 0 0 1-8.793 7.94zm0 0" data-original="#d1d4d1"></path><path fill="#ffffff" d="M394.258 323.188a8.97 8.97 0 0 1-3.442-.7 8.824 8.824 0 0 1-4.687-11.57A140.63 140.63 0 0 0 397.242 256a8.829 8.829 0 0 1 17.656 0c0 10.742-1.085 21.457-3.242 31.98a157.95 157.95 0 0 1-9.27 29.813 8.823 8.823 0 0 1-8.128 5.394zM394.266 206.477a8.817 8.817 0 0 1-8.137-5.395 140.772 140.772 0 0 0-13.04-23.984 141.88 141.88 0 0 0-62.171-51.2 8.838 8.838 0 1 1 6.875-16.285 159.697 159.697 0 0 1 84.594 84.594 8.822 8.822 0 0 1-.762 8.32 8.818 8.818 0 0 1-7.36 3.957zM105.93 264.828A8.829 8.829 0 0 1 97.102 256c0-10.742 1.085-21.457 3.242-31.98a157.95 157.95 0 0 1 9.27-29.813 159.268 159.268 0 0 1 34.081-50.504c3.465-3.344 8.97-3.297 12.375.11s3.453 8.91.106 12.375a142.977 142.977 0 0 0-17.274 20.921 141.553 141.553 0 0 0-13.03 23.985A140.574 140.574 0 0 0 114.757 256a8.829 8.829 0 0 1-8.828 8.828zM197.64 403.094a8.82 8.82 0 0 1-3.44-.707 159.67 159.67 0 0 1-84.587-84.594 8.829 8.829 0 1 1 16.258-6.887 140.624 140.624 0 0 0 13.04 23.985 141.89 141.89 0 0 0 62.171 51.203 8.825 8.825 0 0 1-3.441 16.965zm0 0" data-original="#ffffff" class=""></path><path fill="#ff5364" d="M353.102 256c0 53.629-43.473 97.102-97.102 97.102S158.898 309.629 158.898 256s43.473-97.102 97.102-97.102 97.102 43.473 97.102 97.102zm0 0" data-original="#ff5364"></path><path fill="#ffffff" d="M300.137 256c0 24.375-19.762 44.137-44.137 44.137S211.863 280.375 211.863 256s19.762-44.137 44.137-44.137 44.137 19.762 44.137 44.137zm0 0" data-original="#ffffff" class=""></path></g></svg>