<svg xmlns="http://www.w3.org/2000/svg" xmlns:xlink="http://www.w3.org/1999/xlink" xmlns:svgjs="http://svgjs.com/svgjs" version="1.1" x="0" y="0" style="enable-background:new 0 0 512 512" xml:space="preserve" class="" viewBox="251.58 194.21 256 317.79"><g><path d="M507.586 423.724c0 19.094-9.013 30.402-13.806 35.937-3.469 3.999-5.544 10.946-6.7 16.11C482.392 496.666 466.909 512 445.484 512h-55.093c-27.33 0-59.357-16.808-59.357-44.138v-17.655c-21.433-22.634-18.308-20.833-29.908-45.595-17.946-32.291-49.796-64.583-49.54-66.048.256-1.465-1.368-6.453 5.508-11.008 1.995-1.315 4.096-2.551 6.382-3.407 17.655-6.656 43.75 2.216 55.022 21.645l12.535 16.137V220.69c0-12.156 0-26.483 22.016-26.483 22.669 0 22.122 18.785 22.122 26.527v88.232-35.31c0-12.156 4.961-26.483 21.601-26.483 19.227 0 22.537 14.327 22.537 26.483v35.31-.044c0-20.303 8.519-26.439 21.707-26.439 13.294 0 22.431 14.795 22.431 26.483v17.655c0-12.156 9.084-17.655 17.346-17.655 23.854 0 26.793 31.964 26.793 114.758" style="" fill="#fdd7ad" data-original="#fdd7ad"></path><path d="M480.793 308.966c-2.913 0-5.923.724-8.616 2.154 15.554 8.245 17.752 41.781 17.752 112.605 0 19.094-9.013 30.402-13.806 35.937-3.469 3.999-5.544 10.955-6.7 16.11C464.735 496.666 449.252 512 427.827 512h17.655c21.425 0 36.908-15.334 41.596-36.228 1.156-5.155 3.231-12.111 6.7-16.11 4.793-5.535 13.806-16.843 13.806-35.937 0-82.795-2.939-114.759-26.791-114.759" style="" fill="#bea182" data-original="#bea182"></path><path d="M339.551 379.586c-2.26 0-4.52-.865-6.241-2.586l-8.828-8.828a8.817 8.817 0 0 1 0-12.482 8.817 8.817 0 0 1 12.482 0l8.828 8.828a8.817 8.817 0 0 1 0 12.482 8.803 8.803 0 0 1-6.241 2.586M375.172 379.586a8.826 8.826 0 0 1-8.828-8.828v-61.793a8.826 8.826 0 0 1 8.828-8.828 8.826 8.826 0 0 1 8.828 8.828v61.793a8.826 8.826 0 0 1-8.828 8.828M419.31 370.759a8.826 8.826 0 0 1-8.828-8.828v-52.966a8.826 8.826 0 0 1 8.828-8.828 8.826 8.826 0 0 1 8.828 8.828v52.966a8.826 8.826 0 0 1-8.828 8.828M463.448 379.586a8.826 8.826 0 0 1-8.828-8.828V326.62a8.826 8.826 0 0 1 8.828-8.828 8.826 8.826 0 0 1 8.828 8.828v44.138a8.826 8.826 0 0 1-8.828 8.828" style="" fill="#f09372" data-original="#f09372"></path></g></svg>