<svg xmlns="http://www.w3.org/2000/svg" version="1.1" xmlns:xlink="http://www.w3.org/1999/xlink" xmlns:svgjs="http://svgjs.com/svgjs" width="512" height="512" x="0" y="0" viewBox="0 0 64 64" style="enable-background:new 0 0 512 512" xml:space="preserve" class=""><g><g data-name="03-building"><path fill="#d8c4a7" d="M1 21h34v42H1z" data-original="#d8c4a7" class=""></path><g fill="#cce1e2"><path d="M8 25a3 3 0 0 1 3 3v9H5v-9a3 3 0 0 1 3-3zM18 25a3 3 0 0 1 3 3v9h-6v-9a3 3 0 0 1 3-3zM28 25a3 3 0 0 1 3 3v9h-6v-9a3 3 0 0 1 3-3zM28 44a3 3 0 0 1 3 3v9h-6v-9a3 3 0 0 1 3-3zM18 44a3 3 0 0 1 3 3v9h-6v-9a3 3 0 0 1 3-3zM8 44a3 3 0 0 1 3 3v9H5v-9a3 3 0 0 1 3-3z" fill="#cce1e2" data-original="#cce1e2"></path></g><path fill="#5c2913" d="M39 4h20v3H39z" data-original="#5c2913"></path><path fill="#7b3719" d="M39 7h20l4 14H35z" data-original="#7b3719" class=""></path><path fill="#005053" d="M3 1h30v4H3z" data-original="#005053"></path><path fill="#97b6b7" d="M49 12a8 8 0 0 1 8 8H41a8 8 0 0 1 8-8z" data-original="#97b6b7"></path><path fill="#fee6c4" d="M35 21h28v42H35z" data-original="#fee6c4"></path><path fill="#006a6e" d="M3 5h30l2 12H1z" data-original="#006a6e" class=""></path><path fill="#aebfc0" d="M18 8a6 6 0 0 1 6 6H12a6 6 0 0 1 6-6z" data-original="#aebfc0"></path><path fill="#a3947e" d="M1 17h34v4H1z" data-original="#a3947e" class=""></path><path fill="#efe7dc" d="M1 40h11v2H1zM24 40h11v2H24zM14 40h8v2h-8z" data-original="#efe7dc"></path><path fill="#74655a" d="M8 24a4 4 0 0 0-4 4v9a1 1 0 0 0 1 1h6a1 1 0 0 0 1-1v-9a4 4 0 0 0-4-4zm2 4H9v-1.722A1.993 1.993 0 0 1 10 28zm-1 2h1v2H9zm-2 2H6v-2h1zm0-5.722V28H6a1.993 1.993 0 0 1 1-1.722zM6 34h1v2H6zm3 2v-2h1v2zM18 24a4 4 0 0 0-4 4v9a1 1 0 0 0 1 1h6a1 1 0 0 0 1-1v-9a4 4 0 0 0-4-4zm2 4h-1v-1.722A1.993 1.993 0 0 1 20 28zm-1 2h1v2h-1zm-2 2h-1v-2h1zm0-5.722V28h-1a1.993 1.993 0 0 1 1-1.722zM16 34h1v2h-1zm3 2v-2h1v2zM28 24a4 4 0 0 0-4 4v9a1 1 0 0 0 1 1h6a1 1 0 0 0 1-1v-9a4 4 0 0 0-4-4zm2 4h-1v-1.722A1.993 1.993 0 0 1 30 28zm-1 2h1v2h-1zm-2 2h-1v-2h1zm0-5.722V28h-1a1.993 1.993 0 0 1 1-1.722zM26 34h1v2h-1zm3 2v-2h1v2zM28 43a4 4 0 0 0-4 4v9a1 1 0 0 0 1 1h6a1 1 0 0 0 1-1v-9a4 4 0 0 0-4-4zm2 4h-1v-1.722A1.993 1.993 0 0 1 30 47zm-1 2h1v2h-1zm-2 2h-1v-2h1zm0-5.722V47h-1a1.993 1.993 0 0 1 1-1.722zM26 53h1v2h-1zm3 2v-2h1v2zM18 43a4 4 0 0 0-4 4v9a1 1 0 0 0 1 1h6a1 1 0 0 0 1-1v-9a4 4 0 0 0-4-4zm2 4h-1v-1.722A1.993 1.993 0 0 1 20 47zm-1 2h1v2h-1zm-2 2h-1v-2h1zm0-5.722V47h-1a1.993 1.993 0 0 1 1-1.722zM16 53h1v2h-1zm3 2v-2h1v2zM8 43a4 4 0 0 0-4 4v9a1 1 0 0 0 1 1h6a1 1 0 0 0 1-1v-9a4 4 0 0 0-4-4zm2 4H9v-1.722A1.993 1.993 0 0 1 10 47zm-1 2h1v2H9zm-2 2H6v-2h1zm0-5.722V47H6a1.993 1.993 0 0 1 1-1.722zM6 53h1v2H6zm3 2v-2h1v2z" data-original="#74655a" class=""></path><path fill="#d0f0f1" d="M43 25a3 3 0 0 1 3 3v9h-6v-9a3 3 0 0 1 3-3zM55 25a3 3 0 0 1 3 3v9h-6v-9a3 3 0 0 1 3-3zM55 44a3 3 0 0 1 3 3v9h-6v-9a3 3 0 0 1 3-3zM43 44a3 3 0 0 1 3 3v9h-6v-9a3 3 0 0 1 3-3z" data-original="#d0f0f1"></path><path fill="#efe7dc" d="M1 59h11v2H1zM14 59h8v2h-8zM24 59h11v2H24z" data-original="#efe7dc"></path><path fill="#74655a" d="M18 7a7.008 7.008 0 0 0-7 7 1 1 0 0 0 1 1h12a1 1 0 0 0 1-1 7.008 7.008 0 0 0-7-7zm-1 2.11V13h-3.9A5.006 5.006 0 0 1 17 9.11zM19 13V9.11A5.006 5.006 0 0 1 22.9 13z" data-original="#74655a" class=""></path><path fill="#955f47" d="M49 11a9.01 9.01 0 0 0-9 9 1 1 0 0 0 1 1h16a1 1 0 0 0 1-1 9.01 9.01 0 0 0-9-9zm5.736 5H50v-2.921A7 7 0 0 1 54.736 16zM48 13.079V16h-4.736A7 7 0 0 1 48 13.079zM42.3 18H48v1h-5.929a6.91 6.91 0 0 1 .229-1zm7.7 1v-1h5.7a6.91 6.91 0 0 1 .227 1z" data-original="#955f47"></path><path fill="#fffaf3" d="M39 40h8v2h-8zM51 40h8v2h-8zM39 59h8v2h-8zM51 59h8v2h-8z" data-original="#fffaf3"></path><path fill="#955f47" d="M43 24a4 4 0 0 0-4 4v9a1 1 0 0 0 1 1h6a1 1 0 0 0 1-1v-9a4 4 0 0 0-4-4zm2 4h-1v-1.722A1.993 1.993 0 0 1 45 28zm-1 2h1v2h-1zm-2 2h-1v-2h1zm0-5.722V28h-1a1.993 1.993 0 0 1 1-1.722zM41 34h1v2h-1zm3 2v-2h1v2zM55 24a4 4 0 0 0-4 4v9a1 1 0 0 0 1 1h6a1 1 0 0 0 1-1v-9a4 4 0 0 0-4-4zm2 4h-1v-1.722A1.993 1.993 0 0 1 57 28zm-1 2h1v2h-1zm-2 2h-1v-2h1zm0-5.722V28h-1a1.993 1.993 0 0 1 1-1.722zM53 34h1v2h-1zm3 2v-2h1v2zM55 43a4 4 0 0 0-4 4v9a1 1 0 0 0 1 1h6a1 1 0 0 0 1-1v-9a4 4 0 0 0-4-4zm2 4h-1v-1.722A1.993 1.993 0 0 1 57 47zm-1 2h1v2h-1zm-2 2h-1v-2h1zm0-5.722V47h-1a1.993 1.993 0 0 1 1-1.722zM53 53h1v2h-1zm3 2v-2h1v2zM43 43a4 4 0 0 0-4 4v9a1 1 0 0 0 1 1h6a1 1 0 0 0 1-1v-9a4 4 0 0 0-4-4zm2 4h-1v-1.722A1.993 1.993 0 0 1 45 47zm-1 2h1v2h-1zm-2 2h-1v-2h1zm0-5.722V47h-1a1.993 1.993 0 0 1 1-1.722zM41 53h1v2h-1zm3 2v-2h1v2z" data-original="#955f47"></path></g></g></svg>