<svg xmlns="http://www.w3.org/2000/svg" version="1.1" xmlns:xlink="http://www.w3.org/1999/xlink" xmlns:svgjs="http://svgjs.com/svgjs" width="512" height="512" x="0" y="0" viewBox="0 0 64 64" style="enable-background:new 0 0 512 512" xml:space="preserve" class=""><g><g data-name="17-Paris metro"><path fill="#66a6a8" d="M31 3h2v3h-2z" data-original="#66a6a8" class=""></path><path fill="#dbc27f" d="m18 29-1.867-.622a3.585 3.585 0 0 0-2.266 0 3.582 3.582 0 0 0-2.344 2.531L11 33l3 2M46 29l1.867-.622a3.585 3.585 0 0 1 2.266 0 3.582 3.582 0 0 1 2.344 2.531L53 33l-3 2M46 45l1.867.622a3.585 3.585 0 0 0 2.266 0 3.582 3.582 0 0 0 2.344-2.531L53 41l-3-1M18 45l-1.867.622a3.585 3.585 0 0 1-2.266 0 3.582 3.582 0 0 1-2.344-2.531L11 41l3-2" data-original="#dbc27f"></path><path fill="#8c070d" d="m30 10-1-4 3-1 3 1-.688 3.625M30 27h4v4h-4z" data-original="#8c070d"></path><path fill="#587b7c" d="M30 21h4v3h-4z" data-original="#587b7c"></path><path fill="#8c070d" d="m12 43-3 1v4h4l1-3M12 31l-3-1v-4h4l1 3M53 31l3-1v-4h-4l-1 3M53 43l3 1v4h-4l-1-3" data-original="#8c070d"></path><circle cx="32" cy="15" r="7" fill="#ffce33" data-original="#ffce33" class=""></circle><path fill="#ffe285" d="M32 8a7 7 0 0 0-1.5.165 7 7 0 0 1 0 13.67A7 7 0 1 0 32 8z" data-original="#ffe285" class=""></path><path fill="#66a6a8" d="M30 49h4v15h-4z" data-original="#66a6a8" class=""></path><path fill="#799596" d="m43 43-.942 1.57A7.064 7.064 0 0 1 36 48v-5M21 43l.942 1.57A7.064 7.064 0 0 0 28 48v-5" data-original="#799596"></path><path fill="#587b7c" d="M28 43h8v6h-8z" data-original="#587b7c"></path><path fill="#d92029" d="M14 31h36v12H14z" data-original="#d92029"></path><path fill="#f0a6a9" d="M29 35v-2h-3a1 1 0 0 0-1 1v6a1 1 0 0 0 1 1h3v-2h-2v-1h1v-2h-1v-1zM34 33h-4v2h1v6h2v-6h1zM40 41h-2v-1.586l-1-1V41h-2v-7a1 1 0 0 1 1-1h3a1 1 0 0 1 1 1v3a1 1 0 0 1-.649.937l.356.356A1 1 0 0 1 40 39zm-3-5h1v-1h-1zM45 41h-3a1 1 0 0 1-1-1v-6a1 1 0 0 1 1-1h3a1 1 0 0 1 1 1v6a1 1 0 0 1-1 1zm-2-2h1v-4h-1zM24 41h-2v-4.586l-.293.293a1 1 0 0 1-1.414 0L20 36.414V41h-2v-7a1 1 0 0 1 1.707-.707L21 34.586l1.293-1.293A1 1 0 0 1 24 34z" data-original="#f0a6a9"></path><path fill="#587b7c" d="M28 49a8.108 8.108 0 0 1-6.916-3.915L20.434 44H18.5a.5.5 0 0 0 0 1h.5v2h-.5a2.5 2.5 0 0 1 0-5H21a1 1 0 0 1 .857.485l.942 1.571A6.1 6.1 0 0 0 28 47zM36 49v-2a6.1 6.1 0 0 0 5.2-2.944l.942-1.571A1 1 0 0 1 43 42h2.5a2.5 2.5 0 0 1 0 5H45v-2h.5a.5.5 0 0 0 0-1h-1.934l-.65 1.085A8.108 8.108 0 0 1 36 49z" data-original="#587b7c"></path><path fill="#66a6a8" d="M31 24h2v3h-2z" data-original="#66a6a8" class=""></path><path fill="#587b7c" d="M28 32a3 3 0 0 1-3-3h2a1 1 0 1 0 1-1h-2.171a1 1 0 0 0-.708.293l-2.975 2.975a2.516 2.516 0 0 1-1.767.732H19.5a2.5 2.5 0 0 1 0-5h.5v2h-.5a.5.5 0 0 0 0 1h.879a.507.507 0 0 0 .353-.146l2.975-2.975A2.978 2.978 0 0 1 25.829 26H28a3 3 0 0 1 0 6zM44.5 32h-.879a2.516 2.516 0 0 1-1.767-.732l-2.975-2.975a1 1 0 0 0-.708-.293H36a1 1 0 1 0 1 1h2a3 3 0 1 1-3-3h2.171a2.978 2.978 0 0 1 2.122.879l2.975 2.975a.507.507 0 0 0 .353.146h.879a.5.5 0 0 0 0-1H44v-2h.5a2.5 2.5 0 0 1 0 5z" data-original="#587b7c"></path><path fill="#587b7c" d="m13.445 35.832-3-2a1 1 0 0 1-.415-1.074l.523-2.091a4.584 4.584 0 0 1 5.9-3.237l1.866.622-.632 1.9-1.867-.622a2.623 2.623 0 0 0-1.634 0 2.573 2.573 0 0 0-1.69 1.825l-.352 1.408 2.414 1.609zM50.555 35.832l-1.11-1.664 2.414-1.609-.352-1.408a2.573 2.573 0 0 0-1.69-1.825 2.623 2.623 0 0 0-1.634 0l-1.867.622-.632-1.9 1.867-.622a4.583 4.583 0 0 1 5.9 3.237l.523 2.091a1 1 0 0 1-.415 1.074zM49 46.805a4.563 4.563 0 0 1-1.45-.235l-1.866-.622.632-1.9 1.867.622a2.623 2.623 0 0 0 1.634 0 2.573 2.573 0 0 0 1.69-1.825l.3-1.193-2.121-.708.632-1.9 3 1a1 1 0 0 1 .654 1.19l-.523 2.091A4.582 4.582 0 0 1 49 46.805zM15 46.805a4.582 4.582 0 0 1-4.447-3.472l-.523-2.091a1 1 0 0 1 .415-1.074l3-2 1.11 1.664-2.414 1.609.352 1.408a2.573 2.573 0 0 0 1.69 1.825 2.623 2.623 0 0 0 1.634 0l1.867-.622.632 1.9-1.867.622a4.552 4.552 0 0 1-1.449.231z" data-original="#587b7c"></path><path fill="#66a6a8" d="M38 10H26a1 1 0 0 1-1-1V7h2v1h10V7h2v2a1 1 0 0 1-1 1z" data-original="#66a6a8" class=""></path><path fill="#a3181f" d="M50 44H14a1 1 0 0 1-1-1V31a1 1 0 0 1 1-1h36a1 1 0 0 1 1 1v12a1 1 0 0 1-1 1zm-35-2h34V32H15z" data-original="#a3181f"></path><circle cx="29" cy="18" r="1" fill="#fff5d6" data-original="#fff5d6"></circle><circle cx="30.5" cy="19.5" r=".5" fill="#fff5d6" data-original="#fff5d6"></circle><path fill="#2e5a5b" d="M30 49h4v1h-4z" data-original="#2e5a5b"></path></g></g></svg>