<svg xmlns="http://www.w3.org/2000/svg" version="1.1" xmlns:xlink="http://www.w3.org/1999/xlink" xmlns:svgjs="http://svgjs.com/svgjs" width="512" height="512" x="0" y="0" viewBox="0 0 64 64" style="enable-background:new 0 0 512 512" xml:space="preserve" class=""><g><g data-name="20-cafe"><path fill="#e8cdcf" d="M0 4h64v55H0z" data-original="#e8cdcf"></path><circle cx="37" cy="57" r="3" fill="#55473e" data-original="#55473e"></circle><path fill="#7b3719" d="M33 59H1V12h32z" data-original="#7b3719" class=""></path><path fill="#aec4c4" d="M38 12h26v25H38z" data-original="#aec4c4" class=""></path><path fill="#caeaea" d="M39 13h25v24H39z" data-original="#caeaea" class=""></path><path fill="#ba6a6e" d="M0 0h64v5H0z" data-original="#ba6a6e"></path><g fill="#8c070d"><path d="M10 0h4v6a2 2 0 0 1-2 2 2 2 0 0 1-2-2V0zM2 0h4v6a2 2 0 0 1-2 2 2 2 0 0 1-2-2V0zM18 0h4v6a2 2 0 0 1-2 2 2 2 0 0 1-2-2V0zM26 0h4v6a2 2 0 0 1-2 2 2 2 0 0 1-2-2V0zM34 0h4v6a2 2 0 0 1-2 2 2 2 0 0 1-2-2V0zM42 0h4v6a2 2 0 0 1-2 2 2 2 0 0 1-2-2V0zM50 0h4v6a2 2 0 0 1-2 2 2 2 0 0 1-2-2V0zM58 0h4v6a2 2 0 0 1-2 2 2 2 0 0 1-2-2V0z" fill="#8c070d" data-original="#8c070d"></path></g><path fill="#caeaea" d="M4 15h11v30H4z" data-original="#caeaea" class=""></path><path fill="#aec4c4" d="M5 16h10v-1H4v30h1z" data-original="#aec4c4" class=""></path><path fill="#caeaea" d="M19 15h11v30H19z" data-original="#caeaea" class=""></path><path fill="#cea86e" d="M50 20h-2v-1a2 2 0 0 1 2-2v-1h2v1a2 2 0 0 1-2 2zM54 20h-2v-1a2 2 0 0 1 2-2v-1h2v1a2 2 0 0 1-2 2z" data-original="#cea86e"></path><path fill="#ceac78" d="M57 28h-4v-2h3v-2h-2v-2h3a1 1 0 0 1 1 1v4a1 1 0 0 1-1 1z" data-original="#ceac78"></path><path fill="#66a6a8" d="M42 23h4v2h-4zM41 26h5v2h-5zM59 23h4v2h-4zM59 26h5v2h-5z" data-original="#66a6a8"></path><path fill="#77587c" d="M22 46a9 9 0 1 0 9 9 9.01 9.01 0 0 0-9-9zm6.917 8H24.8a3.2 3.2 0 0 0-.118-.319l.026.026 2.892-2.891A6.973 6.973 0 0 1 28.917 54zM23 48.08a6.947 6.947 0 0 1 3.184 1.32l-2.891 2.891.026.026a2.99 2.99 0 0 0-.319-.133zm-2 0v4.1a2.99 2.99 0 0 0-.319.135l.026-.026-2.891-2.889A6.947 6.947 0 0 1 21 48.08zm-4.6 2.736 2.891 2.891.026-.026a2.99 2.99 0 0 0-.135.319h-4.1a6.947 6.947 0 0 1 1.318-3.184zM15.08 56h4.1a2.99 2.99 0 0 0 .135.319l-.026-.026-2.889 2.891A6.947 6.947 0 0 1 15.08 56zM21 61.92a6.947 6.947 0 0 1-3.184-1.32l2.891-2.891-.026-.026a2.99 2.99 0 0 0 .319.135zM22 56a1 1 0 1 1 1-1 1 1 0 0 1-1 1zm1 5.92v-4.1a2.99 2.99 0 0 0 .319-.135l-.026.026 2.891 2.889A6.947 6.947 0 0 1 23 61.92zm4.6-2.736-2.891-2.891-.026.026A3.2 3.2 0 0 0 24.8 56h4.118a6.973 6.973 0 0 1-1.318 3.184z" data-original="#77587c"></path><path fill="#66a6a8" d="M42.049 55a1.007 1.007 0 0 1-1-1.1 12 12 0 0 1 22.1-5.314 1.008 1.008 0 0 1-.388 1.437.983.983 0 0 1-1.281-.335 10 10 0 0 0-18.437 4.434.982.982 0 0 1-.994.878z" data-original="#66a6a8"></path><path fill="#77587c" d="M53 46a9 9 0 1 0 9 9 9.01 9.01 0 0 0-9-9zm1.319 6.319a2.99 2.99 0 0 0-.319-.135v-4.1a6.947 6.947 0 0 1 3.184 1.316l-2.891 2.891zM53 56a1 1 0 1 1 1-1 1 1 0 0 1-1 1zm-1-3.816a2.99 2.99 0 0 0-.319.135l.026-.026-2.891-2.893A6.947 6.947 0 0 1 52 48.08zm-1.707 1.523.026-.026a2.99 2.99 0 0 0-.135.319h-4.1a6.947 6.947 0 0 1 1.316-3.184zM50.184 56a2.99 2.99 0 0 0 .135.319l-.026-.026-2.893 2.891A6.947 6.947 0 0 1 46.08 56zm1.523 1.707-.026-.026a2.99 2.99 0 0 0 .319.135v4.1a6.947 6.947 0 0 1-3.184-1.316zm2.293.109a2.99 2.99 0 0 0 .319-.135l-.026.026 2.891 2.893A6.947 6.947 0 0 1 54 61.92zm1.707-1.523-.026.026a2.99 2.99 0 0 0 .135-.319h4.1a6.947 6.947 0 0 1-1.316 3.184zM55.816 54a2.99 2.99 0 0 0-.135-.319l.026.026 2.893-2.891A6.947 6.947 0 0 1 59.92 54z" data-original="#77587c"></path><path fill="#66a6a8" d="M37 61a4 4 0 1 1 4-4 4 4 0 0 1-4 4zm0-6a2 2 0 1 0 2 2 2 2 0 0 0-2-2z" data-original="#66a6a8"></path><path fill="#b59c92" d="M42 63h-1.434a2 2 0 0 1-1.715-.971l-2.194-3.657A1 1 0 0 1 37 57a1 1 0 0 1 1.372.343l1.9 3.172a1 1 0 0 0 .858.485H42a1 1 0 0 1 1 1 1 1 0 0 1-1 1z" data-original="#b59c92"></path><path fill="#66a6a8" d="m30.056 41.345 1.867-.719 5 12.995-1.867.718z" data-original="#66a6a8"></path><path fill="#66a6a8" d="m29.285 47.29 3-3 1.414 1.415-3 3zM37.489 53.108l4.997-3.003 1.03 1.714-4.997 3.003zM48.052 44.316l-1.4-4.192a2.906 2.906 0 0 1 1.837-3.675.743.743 0 0 0-.232-1.449H42v-2h6.257a2.743 2.743 0 0 1 .867 5.346.907.907 0 0 0-.573 1.145l1.4 4.193z" data-original="#66a6a8"></path><path fill="#66a6a8" d="M37.562 51a4.464 4.464 0 0 1-1.411-.229l-2.467-.823.632-1.9 2.466.822a2.5 2.5 0 0 0 2.528-.6l7.983-7.983 1.414 1.414-7.983 7.989A4.441 4.441 0 0 1 37.562 51z" data-original="#66a6a8"></path><path fill="#aec4c4" d="M20 16h10v-1H19v30h1z" data-original="#aec4c4" class=""></path><path fill="#66a6a8" d="M11.049 55a1.007 1.007 0 0 1-1-1.1 12 12 0 0 1 22.1-5.314 1.008 1.008 0 0 1-.388 1.437.983.983 0 0 1-1.281-.335 10 10 0 0 0-18.437 4.434.982.982 0 0 1-.994.878z" data-original="#66a6a8"></path><path fill="#55473e" d="M27 40a2 2 0 0 1 2-2h3.586A1.414 1.414 0 0 1 34 39.414v.172A1.414 1.414 0 0 1 32.586 41a1.415 1.415 0 0 0-1 .414l-.172.172a1.415 1.415 0 0 1-1 .414H29a2 2 0 0 1-2-2z" data-original="#55473e"></path><path fill="#fa9f12" d="M47 22h8v5.995A2.005 2.005 0 0 1 52.995 30h-3.99A2.005 2.005 0 0 1 47 27.995V22z" data-original="#fa9f12"></path></g></g></svg>